<svg width="14" height="17" viewBox="0 0 14 17" fill="none" xmlns="http://www.w3.org/2000/svg">
<path d="M5.09091 16.5V15.0455H1.45455C1.05455 15.0455 0.712121 14.903 0.427273 14.6182C0.142424 14.3333 0 13.9909 0 13.5909V3.40909C0 3.00909 0.142424 2.66667 0.427273 2.38182C0.712121 2.09697 1.05455 1.95455 1.45455 1.95455H5.09091V0.5H6.54545V16.5H5.09091ZM8 15.0455V13.5909L11.6364 13.5909V3.40909H8V1.95455H11.6364C12.0364 1.95455 12.3788 2.09697 12.6636 2.38182C12.9485 2.66667 13.0909 3.00909 13.0909 3.40909V13.5909C13.0909 13.9909 12.9485 14.3333 12.6636 14.6182C12.3788 14.903 12.0364 15.0455 11.6364 15.0455H8Z" fill="#000"/>
</svg>
